<svg width="144" height="38" viewBox="0 0 144 38" fill="none" xmlns="http://www.w3.org/2000/svg">
<mask id="mask0_3_2" style="mask-type:luminance" maskUnits="userSpaceOnUse" x="0" y="0" width="27" height="38">
<path d="M26.6689 0.551487H0V37.4484H26.6689V0.551487Z" fill="white"/>
</mask>
<g mask="url(#mask0_3_2)">
<path d="M23.2907 3.57532L24.695 5.12882L9.6985 3.2863L8.294 1.7328L23.2907 3.57532Z" fill="black"/>
<path d="M23.8217 3.84556L25.226 5.39907C25.0961 5.25536 24.9114 5.1555 24.6935 5.12871L23.2892 3.57521C23.5071 3.60201 23.6918 3.70167 23.8217 3.84556Z" fill="black"/>
<path d="M25.2187 5.3902C25.3882 5.57225 25.4686 5.82758 25.4141 6.0955L24.0098 4.542C24.0643 4.27409 23.9839 4.01876 23.8144 3.83669C24.2356 4.30271 24.7974 4.92418 25.2187 5.3902Z" fill="white"/>
<path d="M7.2256 2.4798L8.62988 4.0335L2.65843 33.4579L1.25415 31.9041L7.2256 2.4798Z" fill="black"/>
<path d="M2.84526 34.1543L1.44097 32.6008C1.27696 32.4196 1.20025 32.1681 1.25386 31.9044L2.65815 33.4579C2.60476 33.7216 2.68146 33.9731 2.84526 34.1543Z" fill="black"/>
<path d="M3.37783 34.4242C3.16444 34.398 2.98306 34.3019 2.85358 34.163L1.4493 32.6095C1.57877 32.7485 1.76017 32.8445 1.97355 32.8707C2.39481 33.3367 2.95657 33.9582 3.37783 34.4242Z" fill="white"/>
<path d="M16.9711 34.713L18.3756 36.2666L3.37878 34.4242L1.97449 32.8707L16.9711 34.713Z" fill="white"/>
<path d="M24.0088 4.54177L25.4131 6.09527L19.4416 35.5197L18.0373 33.9662L24.0088 4.54177Z" fill="white"/>
<path d="M18.0375 33.9671C17.9417 34.4395 17.4628 34.7745 16.9701 34.714L1.97345 32.8715C1.48076 32.811 1.15783 32.3774 1.25382 31.9052L7.22485 2.48044C7.32062 2.00795 7.79953 1.67284 8.29221 1.73333L23.2889 3.57586C23.7815 3.63633 24.1044 4.07007 24.0085 4.54236L18.0375 33.9671Z" fill="#FF87A6"/>
<mask id="mask1_3_2" style="mask-type:luminance" maskUnits="userSpaceOnUse" x="1" y="1" width="24" height="34">
<path d="M18.0345 33.9668C17.9387 34.4393 17.4599 34.7741 16.9672 34.7137L1.97056 32.8711C1.47789 32.8106 1.15495 32.3771 1.25095 31.9048L7.22197 2.48011C7.31776 2.0076 7.79666 1.67251 8.28933 1.73298L23.286 3.57551C23.7787 3.636 24.1016 4.06973 24.0055 4.54203L18.0345 33.9668Z" fill="white"/>
</mask>
<g mask="url(#mask1_3_2)">
<path d="M19.117 6.3369L16.5938 6.02696C16.464 6.01114 16.3297 6.05578 16.232 6.14732L14.4537 7.82462C14.4196 7.85711 14.3742 7.86989 14.3327 7.86482C14.2912 7.85974 14.253 7.83681 14.2335 7.79763L13.2215 5.77873C13.1651 5.66711 13.0537 5.59221 12.9229 5.57618L10.254 5.24818C9.92257 5.2074 9.65642 5.54268 9.79606 5.82421L11.9134 10.0995C11.9371 10.1492 11.9248 10.2103 11.8812 10.2517L8.04828 13.8679C7.79886 14.1018 7.91881 14.488 8.25149 14.5288L10.9658 14.8622C11.0978 14.8786 11.2338 14.8327 11.3319 14.7378L13.1359 12.9905C13.1704 12.9568 13.2162 12.9434 13.2586 12.9485C13.301 12.9536 13.3387 12.9769 13.3588 13.0165L14.3984 15.1157C14.4533 15.2281 14.5645 15.3046 14.6965 15.3208L17.4303 15.6567C17.7618 15.6975 18.0281 15.361 17.8861 15.078L15.669 10.6584C15.645 10.6097 15.6563 10.5486 15.6997 10.507L19.3263 6.9941C19.5697 6.75846 19.4484 6.37768 19.117 6.3369Z" fill="black"/>
<path d="M10.281 28.1083C9.97651 28.0709 9.70103 27.9831 9.4548 27.8434C9.21832 27.705 9.01765 27.5264 8.85406 27.3068C8.70105 27.0788 8.5985 26.8174 8.54489 26.5199C8.49403 26.2144 8.5042 25.8801 8.57795 25.5166C8.65148 25.1543 8.77352 24.8375 8.94093 24.5681C9.11151 24.2899 9.31261 24.0644 9.54677 23.8937C9.79088 23.7157 10.0539 23.5883 10.3334 23.5144C10.6228 23.4405 10.9199 23.4228 11.2244 23.4604C11.5289 23.4978 11.7995 23.5852 12.0373 23.7238C12.2837 23.8623 12.4821 24.0465 12.6353 24.2733C12.7989 24.4928 12.9059 24.7562 12.958 25.0618C13.0108 25.3581 13.0012 25.6886 12.9277 26.051C12.854 26.4145 12.7313 26.735 12.5619 27.0135C12.3931 27.2836 12.1871 27.5071 11.9428 27.6864C11.7088 27.8572 11.4484 27.979 11.1587 28.0529C10.8777 28.1277 10.5857 28.1458 10.281 28.1083ZM11.7391 20.9234C10.9538 20.827 10.2005 20.8569 9.47811 21.0134C8.76526 21.1711 8.11875 21.4414 7.53962 21.8234C6.96239 22.1973 6.47395 22.6638 6.07727 23.2221C5.69075 23.7746 5.42608 24.4043 5.28263 25.1115C5.13917 25.8186 5.14277 26.4745 5.29025 27.0995C5.44621 27.7269 5.72509 28.2926 6.12473 28.795C6.52586 29.289 7.03508 29.6964 7.65065 30.0173C8.27597 30.3395 8.98099 30.5474 9.7663 30.6439C10.5601 30.7416 11.3132 30.7126 12.0271 30.5551C12.7399 30.3973 13.3856 30.1316 13.9628 29.7578C14.5418 29.3758 15.0261 28.9039 15.4146 28.3434C15.8113 27.785 16.0805 27.1558 16.2226 26.4556C16.366 25.7484 16.359 25.0851 16.2013 24.4658C16.0536 23.8408 15.7786 23.2804 15.3776 22.7864C14.9779 22.284 14.4699 21.8718 13.8541 21.5509C13.2373 21.2298 12.5329 21.021 11.7391 20.9234Z" fill="black"/>
<path d="M19.066 18.427L6.7293 16.9115C6.46798 16.8795 6.21289 17.0578 6.16199 17.3086C6.11109 17.5595 6.28303 17.7902 6.54433 17.8223L18.8812 19.3378C19.1442 19.3701 19.3972 19.193 19.4484 18.9407C19.4994 18.6901 19.3292 18.4594 19.066 18.427Z" fill="black"/>
</g>
<path d="M18.037 33.9664L19.4413 35.5199C19.3455 35.9925 18.8666 36.3273 18.374 36.2668L16.9697 34.7133C17.4624 34.7738 17.9412 34.439 18.037 33.9664Z" fill="white"/>
<path fill-rule="evenodd" clip-rule="evenodd" d="M1.6302 34.0196C0.528831 33.8286 -0.179443 32.835 0.0397979 31.7551L6.01103 2.33072C6.23735 1.21604 7.36722 0.425284 8.52994 0.568172L23.5265 2.41069C24.4342 2.52226 25.0977 3.17028 25.2373 3.9796C25.1768 3.62858 25.0176 3.30791 24.783 3.04821L26.1873 4.6017C26.574 5.02955 26.7553 5.62282 26.6291 6.24471L20.6577 35.6691C20.4314 36.7837 19.3014 37.5744 18.139 37.4315L3.14229 35.5893C2.62829 35.5262 2.1925 35.2906 1.88592 34.9516L0.481626 33.3981C0.76658 33.7132 1.163 33.9386 1.6302 34.0196ZM16.9708 34.7134L1.97427 32.871C1.4816 32.8106 1.15865 32.3767 1.25464 31.9042L7.2261 2.47991C7.32187 2.0074 7.80057 1.67231 8.29344 1.73279L23.2901 3.57531C23.7829 3.6358 24.1059 4.06953 24.0099 4.54203L18.0385 33.9665C17.9427 34.4391 17.4638 34.7739 16.9708 34.7134Z" fill="black"/>
<path d="M23.6207 17.8181L23.0122 20.8239L21.5472 19.7051L22.1484 16.7404L23.6207 17.8181ZM23.8947 16.4684L23.7197 17.3328L22.2474 16.2553L22.4211 15.4004L23.8947 16.4684ZM24.8648 11.6881L24.4343 13.8116L22.9634 12.723L23.4084 10.5294L24.8648 11.6881Z" fill="white" stroke="black" stroke-width="0.0184649"/>
</g>
<path d="M34.5532 17.8721C34.4 17.8721 34.2723 17.8233 34.1702 17.7257C34.0679 17.6119 34.0169 17.4817 34.0169 17.3353C34.0169 17.3028 34.0169 17.2703 34.0169 17.2378C34.034 17.1889 34.0595 17.1321 34.0935 17.0671L39.5583 9.13858L34.5787 1.60048C34.5106 1.5029 34.4765 1.41344 34.4765 1.33213C34.4765 1.18576 34.5277 1.06378 34.6298 0.966205C34.749 0.852359 34.8852 0.795437 35.0384 0.795437H39.6605C39.9499 0.795437 40.1712 0.868623 40.3244 1.01499C40.4777 1.16136 40.5798 1.27521 40.6309 1.35653L43.0569 5.06458L45.5594 1.35653C45.6276 1.27521 45.7382 1.16136 45.8915 1.01499C46.0446 0.868623 46.2659 0.795437 46.5553 0.795437H50.9476C51.1009 0.795437 51.2286 0.852359 51.3307 0.966205C51.4499 1.06378 51.5095 1.18576 51.5095 1.33213C51.5095 1.42971 51.484 1.51916 51.4328 1.60048L46.3511 9.08978L51.8925 17.0671C51.9265 17.1321 51.9436 17.1889 51.9436 17.2378C51.9606 17.2703 51.9692 17.3028 51.9692 17.3353C51.9692 17.4817 51.9095 17.6119 51.7903 17.7257C51.6882 17.8233 51.569 17.8721 51.4328 17.8721H46.6319C46.3426 17.8721 46.1213 17.8069 45.968 17.6769C45.8148 17.5305 45.7212 17.4167 45.6871 17.3353L42.8781 13.3589L40.1457 17.3353C40.1116 17.4167 40.018 17.5305 39.8648 17.6769C39.7115 17.8069 39.4902 17.8721 39.2008 17.8721H34.5532Z" fill="black"/>
<path d="M60.5408 18.116C58.9064 18.116 57.4849 17.8721 56.2762 17.3842C55.0846 16.8962 54.1396 16.1644 53.4416 15.1886C52.7607 14.1965 52.3947 12.9686 52.3436 11.5049C52.3265 10.8218 52.318 10.1225 52.318 9.40693C52.318 8.67506 52.3265 7.95134 52.3436 7.23575C52.3947 5.78831 52.7607 4.56856 53.4416 3.57649C54.1396 2.58442 55.0931 1.8363 56.3018 1.33213C57.5105 0.811701 58.9235 0.551487 60.5408 0.551487C62.1411 0.551487 63.5456 0.811701 64.7543 1.33213C65.9632 1.8363 66.9165 2.58442 67.6145 3.57649C68.3124 4.56856 68.6784 5.78831 68.7125 7.23575C68.7466 7.95134 68.7637 8.67506 68.7637 9.40693C68.7637 10.1225 68.7466 10.8218 68.7125 11.5049C68.6614 12.9686 68.287 14.1965 67.5889 15.1886C66.908 16.1644 65.9632 16.8962 64.7543 17.3842C63.5626 17.8721 62.1582 18.116 60.5408 18.116ZM60.5408 13.9688C61.2558 13.9688 61.8432 13.7655 62.3029 13.3589C62.7625 12.9361 63.0009 12.2693 63.0179 11.3585C63.0519 10.6592 63.0689 9.98427 63.0689 9.33374C63.0689 8.66694 63.0519 7.99201 63.0179 7.30893C63.0009 6.7072 62.8817 6.21116 62.6604 5.82084C62.456 5.43051 62.1667 5.1459 61.7922 4.96701C61.4347 4.78811 61.0175 4.69866 60.5408 4.69866C60.0642 4.69866 59.6385 4.78811 59.2639 4.96701C58.8895 5.1459 58.5915 5.43051 58.3703 5.82084C58.1659 6.21116 58.0552 6.7072 58.0383 7.30893C58.0213 7.99201 58.0128 8.66694 58.0128 9.33374C58.0128 9.98427 58.0213 10.6592 58.0383 11.3585C58.0723 12.2693 58.3106 12.9361 58.7533 13.3589C59.2129 13.7655 59.8088 13.9688 60.5408 13.9688Z" fill="black"/>
<path d="M36.1365 37.4484C35.9492 37.4484 35.7874 37.3914 35.6513 37.2776C35.5151 37.1475 35.4469 36.993 35.4469 36.8141V21.0061C35.4469 20.8271 35.5151 20.6807 35.6513 20.567C35.7874 20.4368 35.9492 20.3718 36.1365 20.3718H39.5328C39.8392 20.3718 40.069 20.4532 40.2223 20.6157C40.3755 20.7784 40.4777 20.8923 40.5288 20.9573L44.6146 27.7392L48.7005 20.9573C48.7515 20.8923 48.8536 20.7784 49.0069 20.6157C49.1601 20.4532 49.3899 20.3718 49.6963 20.3718H53.0928C53.28 20.3718 53.4333 20.4368 53.5524 20.567C53.6886 20.6807 53.7567 20.8271 53.7567 21.0061V36.8141C53.7567 36.993 53.6886 37.1475 53.5524 37.2776C53.4333 37.3914 53.28 37.4484 53.0928 37.4484H49.2623C49.0749 37.4484 48.9133 37.3914 48.7771 37.2776C48.6579 37.1475 48.5982 36.993 48.5982 36.8141V28.9101L46.3 32.7646C46.2149 32.8946 46.1042 33.0247 45.968 33.1549C45.8318 33.2849 45.6361 33.3501 45.3807 33.3501H43.823C43.5845 33.3501 43.3973 33.2849 43.2611 33.1549C43.1249 33.0247 43.0143 32.8946 42.9292 32.7646L40.6309 28.9101V36.8141C40.6309 36.993 40.5627 37.1475 40.4265 37.2776C40.3074 37.3914 40.1543 37.4484 39.9669 37.4484H36.1365Z" fill="black"/>
<path d="M56.0242 37.4484C55.871 37.4484 55.7349 37.3996 55.6157 37.3021C55.5135 37.1882 55.4625 37.058 55.4625 36.9117C55.4625 36.8466 55.4795 36.7898 55.5135 36.7409L61.3359 21.128C61.3869 20.9491 61.4975 20.7784 61.6678 20.6157C61.855 20.4532 62.1019 20.3718 62.4084 20.3718H67.0817C67.4051 20.3718 67.6519 20.4532 67.8221 20.6157C67.9924 20.7784 68.103 20.9491 68.1542 21.128L74.002 36.7409C74.0191 36.7898 74.0276 36.8466 74.0276 36.9117C74.0276 37.058 73.968 37.1882 73.8488 37.3021C73.7467 37.3996 73.619 37.4484 73.4657 37.4484H69.533C69.2437 37.4484 69.031 37.3833 68.8947 37.2532C68.7585 37.123 68.6649 37.0012 68.6138 36.8873L67.8221 34.8381H61.6678L60.8761 36.8873C60.8252 37.0012 60.7316 37.123 60.5953 37.2532C60.4762 37.3833 60.2633 37.4484 59.9569 37.4484H56.0242ZM62.8425 30.7153H66.6475L64.7323 25.2264L62.8425 30.7153Z" fill="black"/>
<path d="M76.3858 37.4484C76.2157 37.4484 76.0624 37.3914 75.9262 37.2776C75.79 37.1475 75.722 36.993 75.722 36.8141V21.0061C75.722 20.8271 75.79 20.6807 75.9262 20.567C76.0624 20.4368 76.2157 20.3718 76.3858 20.3718H83.6639C85.9792 20.3718 87.7922 20.8759 89.1031 21.8843C90.431 22.8926 91.095 24.2995 91.095 26.1046C91.095 27.243 90.8226 28.2108 90.2779 29.0077C89.733 29.8045 89.018 30.4307 88.1327 30.8861L91.4525 36.6434C91.5035 36.7409 91.529 36.8304 91.529 36.9117C91.529 37.058 91.4781 37.1882 91.3759 37.3021C91.2737 37.3996 91.146 37.4484 90.9929 37.4484H86.6771C86.3537 37.4484 86.1069 37.3753 85.9366 37.2289C85.7664 37.0662 85.6556 36.9198 85.6046 36.7898L83.051 31.7643H81.2123V36.8141C81.2123 36.993 81.1442 37.1475 81.0079 37.2776C80.8888 37.3914 80.7357 37.4484 80.5483 37.4484H76.3858ZM81.2123 27.7392H83.6383C84.2341 27.7392 84.6767 27.5846 84.9662 27.2756C85.2556 26.9503 85.4002 26.5519 85.4002 26.0802C85.4002 25.5923 85.2556 25.1777 84.9662 24.8361C84.6937 24.4945 84.2512 24.3238 83.6383 24.3238H81.2123V27.7392Z" fill="black"/>
<path d="M94.4411 37.4484C94.2708 37.4484 94.1175 37.3914 93.9815 37.2776C93.8452 37.1475 93.7771 36.993 93.7771 36.8141V21.0061C93.7771 20.8271 93.8452 20.6807 93.9815 20.567C94.1175 20.4368 94.2708 20.3718 94.4411 20.3718H98.5014C98.6886 20.3718 98.8419 20.4368 98.9611 20.567C99.0973 20.6807 99.1653 20.8271 99.1653 21.0061V26.1291L102.97 20.8841C103.055 20.7702 103.175 20.6564 103.328 20.5425C103.481 20.4287 103.694 20.3718 103.966 20.3718H108.639C108.793 20.3718 108.92 20.4287 109.022 20.5425C109.142 20.6402 109.201 20.7621 109.201 20.9084C109.201 21.0061 109.167 21.0955 109.099 21.1768L103.736 28.5442L109.559 36.6434C109.627 36.7084 109.661 36.7978 109.661 36.9117C109.661 37.058 109.601 37.1882 109.482 37.3021C109.38 37.3996 109.252 37.4484 109.099 37.4484H104.273C103.949 37.4484 103.702 37.3753 103.532 37.2289C103.379 37.0825 103.285 36.9768 103.251 36.9117L99.1653 31.252V36.8141C99.1653 36.993 99.0973 37.1475 98.9611 37.2776C98.8419 37.3914 98.6886 37.4484 98.5014 37.4484H94.4411Z" fill="black"/>
<path d="M112.047 37.4484C111.877 37.4484 111.724 37.3914 111.588 37.2776C111.451 37.1475 111.383 36.993 111.383 36.8141V21.0061C111.383 20.8271 111.451 20.6807 111.588 20.567C111.724 20.4368 111.877 20.3718 112.047 20.3718H124.56C124.747 20.3718 124.909 20.4368 125.045 20.567C125.182 20.6807 125.25 20.8271 125.25 21.0061V23.8847C125.25 24.0474 125.182 24.1938 125.045 24.3238C124.909 24.4538 124.747 24.519 124.56 24.519H116.669V26.9341H123.998C124.186 26.9341 124.347 26.9991 124.484 27.1292C124.62 27.243 124.688 27.3894 124.688 27.5683V30.203C124.688 30.382 124.62 30.5364 124.484 30.6666C124.347 30.7804 124.186 30.8373 123.998 30.8373H116.669V33.3012H124.765C124.952 33.3012 125.114 33.3663 125.25 33.4964C125.386 33.6265 125.454 33.781 125.454 33.9599V36.8141C125.454 36.993 125.386 37.1475 125.25 37.2776C125.114 37.3914 124.952 37.4484 124.765 37.4484H112.047Z" fill="black"/>
<path d="M132.689 37.4484C132.502 37.4484 132.34 37.3914 132.204 37.2776C132.085 37.1475 132.025 36.993 132.025 36.8141V24.9093H127.633C127.446 24.9093 127.284 24.8524 127.148 24.7386C127.028 24.6084 126.969 24.4538 126.969 24.275V21.0061C126.969 20.8271 127.028 20.6807 127.148 20.567C127.284 20.4368 127.446 20.3718 127.633 20.3718H141.984C142.172 20.3718 142.325 20.4368 142.444 20.567C142.58 20.6807 142.648 20.8271 142.648 21.0061V24.275C142.648 24.4538 142.58 24.6084 142.444 24.7386C142.325 24.8524 142.172 24.9093 141.984 24.9093H137.592V36.8141C137.592 36.993 137.524 37.1475 137.388 37.2776C137.269 37.3914 137.115 37.4484 136.928 37.4484H132.689Z" fill="black"/>
</svg>
